<?xml version="1.0"?>
<svg xmlns="http://www.w3.org/2000/svg" viewBox="0 0 512 512" width="512" height="512"><g id="solid"><path d="M74.343,253.657a8,8,0,0,0,11.314,0l9.372-9.373A14.628,14.628,0,0,1,120,254.627a9.492,9.492,0,0,1-4.236,7.915L80,286.385,44.235,262.542A9.493,9.493,0,0,1,40,254.627a14.628,14.628,0,0,1,24.971-10.343Z"/><path d="M471.235,231.85,464,222.806V240a8,8,0,0,1-8,8H400a32,32,0,0,0,0,64h48a32.036,32.036,0,0,0,32-32V256.837A40.146,40.146,0,0,0,471.235,231.85ZM400,288H384V272h16Zm32,0H416V272h16Zm32,0H448V272h16Z"/><path d="M200,467.868V464a55.969,55.969,0,0,1,32.677-50.915,8,8,0,0,0,2-13.233,32,32,0,1,1,42.645,0,8,8,0,0,0,2,13.233A56.178,56.178,0,0,1,312,464v3.868a87.952,87.952,0,0,1-112,0ZM326.978,452a72.353,72.353,0,0,0-31.746-48.357,48,48,0,1,0-78.473-.014,71.952,71.952,0,0,0-31.747,48.357A88,88,0,1,1,326.978,452Z"/><path d="M184.4,171.1a32.177,32.177,0,0,1,19.727-24.825,8,8,0,0,0,1.982-13.709,16,16,0,1,1,19.779,0,8,8,0,0,0,1.982,13.712A31.855,31.855,0,0,1,248,176v31.633A88.02,88.02,0,0,1,184.4,171.1ZM264,207.633V176a31.855,31.855,0,0,1,20.131-29.716,8,8,0,0,0,1.982-13.712,16,16,0,1,1,19.779,0,8,8,0,0,0,1.982,13.709A32.177,32.177,0,0,1,327.6,171.1,88.02,88.02,0,0,1,264,207.633Zm73.786-55.154a48.459,48.459,0,0,0-14.408-15.889,32,32,0,1,0-54.773-.026A47.672,47.672,0,0,0,256,149.417a47.672,47.672,0,0,0-12.6-12.853,32,32,0,1,0-54.773.026,48.459,48.459,0,0,0-14.408,15.889,88,88,0,1,1,163.572,0Z"/><path d="M156.125,408.554a189.433,189.433,0,0,1-75.892-92.449l14.954-5.69a173.336,173.336,0,0,0,69.448,84.59Z"/><path d="M355.875,408.555l-8.509-13.55a173.143,173.143,0,0,0,58.719-61.663l13.95,7.835A189.191,189.191,0,0,1,355.875,408.555Z"/><path d="M424.178,213.027a172.855,172.855,0,0,0-77.931-110.22l8.407-13.614a188.934,188.934,0,0,1,85.168,120.48Z"/><path d="M90.182,203.389l-15.423-4.258A187.591,187.591,0,0,1,157.346,89.194l8.408,13.612A171.644,171.644,0,0,0,90.182,203.389Z"/></g></svg>
