<svg id="Capa_1" enable-background="new 0 0 512.024 512.024" height="512" viewBox="0 0 512.024 512.024" width="512" xmlns="http://www.w3.org/2000/svg"><path d="m117.215 257.245-117.215 35.844v218.929h117.215zm-73.608 151.603v-67.526h30v67.526z"/><path d="m394.81 512.018h117.214v-218.929l-117.214-35.844zm73.607-170.696v67.526h-30v-67.526z"/><path d="m297.284 414.475c0-22.757-18.515-41.271-41.271-41.271-22.757 0-41.271 18.514-41.271 41.271v97.543h82.543v-97.543z"/><path d="m237.25 211.897c0 10.346 8.417 18.763 18.763 18.763s18.763-8.417 18.763-18.763-8.417-18.763-18.763-18.763-18.763 8.417-18.763 18.763z"/><path d="m241.012 101.7-93.797 42.635v367.683h37.526v-97.543c0-39.299 31.972-71.271 71.271-71.271s71.271 31.972 71.271 71.271v97.543h37.526v-367.683l-93.797-42.635v-41.658h30.036v-30h-30.036v-30.036h-30v30.036h-30.036v30h30.036zm63.763 110.197c0 26.888-21.875 48.763-48.763 48.763s-48.763-21.875-48.763-48.763 21.875-48.763 48.763-48.763 48.763 21.875 48.763 48.763z"/></svg>